<svg viewBox="0 0 51 51" xmlns="http://www.w3.org/2000/svg">
    <path d="M25.5.5h0C11.7.5.5,11.7.5,25.5h0c0,13.8,11.2,25,25,25h0c13.7,0,25-11.2,25-25h0C50.5,11.7,39.3.5,25.5.5ZM28.5,18.5l-4.6,15c0,.2-.3.4-.5.4h-3.6c-.3,0-.5-.2-.5-.4l-2.6-10h0l-2.6,10c0,.2-.3.4-.5.4h-3.6c-.2,0-.5-.2-.5-.4l-4.6-15c0-.4.2-.7.5-.7h3.8c.3,0,.5.2.5.4l2.3,9.6h0l2.5-9.6c0-.2.3-.4.5-.4h3.2c.2,0,.5.2.5.4l2.6,9.6h0l2.3-9.6c0-.2.3-.4.5-.4h3.8c.4,0,.6.4.5.7h.1ZM45,33.5h-3.8c0,0-.2,0-.3-.2-.6-1.2-1.7-1.9-3.1-1.9s-1.8.4-2.4,1.1c-.3.3-.5.7-.7,1.1,0,0-.2.2-.3.2h-3.8c-.2,0-.4-.2-.3-.4.3-1.4,1-2.7,2.1-3.8s3.3-2.2,5.4-2.2,3.5.6,5,1.7c1.3,1,2.2,2.4,2.6,4,0,.2,0,.4-.3.4h-.1ZM45.3,21.2c-.5,1.6-1.3,2.9-2.6,3.9-1.4,1.1-3,1.7-4.9,1.7s-4-.8-5.5-2.2c-1.5-1.5-2.3-3.3-2.3-5.5s0-.7,0-1,.2-.3.3-.3h3.8c.2,0,.4.2.3.4v.9c0,1.1.3,1.9,1,2.6.6.7,1.5,1.1,2.5,1.1s2.4-.6,3-1.8c0-.1.2-.2.3-.2h3.8c.2,0,.4.2.3.4Z" fill="#000000"/>
</svg>
